# xmcd
#
# Track frame offsets:
#	150
#	16879
#	31952
#	49131
#	66081
#	85955
#	107961
#	125792
#	141720
#	161015
#	178903
#	199248
#	212952
#	233477
#	241998
#	261579
#	281068
#	298745
#
# Disc length: 4358 seconds
#
# Revision: 1
# Processed by: cddbd v1.5.1PL2 Copyright (c) Steve Scherf et al.
# Submitted via: audiograbber 1.83.01
#
DISCID=24110412
DTITLE=JOHN HAMMER - Live in Sava Centar Belgrade 23.06.1988
DYEAR=1988
DGENRE=Blues
TTITLE0=Honest i do
TTITLE1=Riden` in the moonlight
TTITLE2=Kind hearted woman
TTITLE3=Cuttin` out
TTITLE4=Spoonful
TTITLE5=Drop down mama
TTITLE6=Come on in my kichen
TTITLE7=Mother in law blues
TTITLE8=My time after a while
TTITLE9=Go to find my baby
TTITLE10=See that my grave kept clean
TTITLE11=Step it up and go
TTITLE12=I`m in the mood
TTITLE13=Froggs for snakes
TTITLE14=Who do you love
TTITLE15=Crossroads blues
TTITLE16=Walkin` blues
TTITLE17=Hellhound blues
EXTD=recorded on festival "Belgrade blues days" 23.06.1988
EXTT0=
EXTT1=
EXTT2=
EXTT3=
EXTT4=
EXTT5=
EXTT6=
EXTT7=
EXTT8=
EXTT9=
EXTT10=
EXTT11=
EXTT12=
EXTT13=
EXTT14=
EXTT15=
EXTT16=
EXTT17=
PLAYORDER=
